inDegrees=yes
name=ik_S42_A11_T01
DataType=double
version=3
OpenSimVersion=4.3-2021-08-27-4bc7ad9
endheader
time	pelvis_tilt	pelvis_list	pelvis_rotation	pelvis_tx	pelvis_ty	pelvis_tz	hip_flexion_r	hip_adduction_r	hip_rotation_r	knee_angle_r	knee_angle_r_beta	ankle_angle_r	subtalar_angle_r	mtp_angle_r	hip_flexion_l	hip_adduction_l	hip_rotation_l	knee_angle_l	knee_angle_l_beta	ankle_angle_l	subtalar_angle_l	mtp_angle_l	lumbar_extension	lumbar_bending	lumbar_rotation	arm_flex_r	arm_add_r	arm_rot_r	elbow_flex_r	pro_sup_r	wrist_flex_r	wrist_dev_r	arm_flex_l	arm_add_l	arm_rot_l	elbow_flex_l	pro_sup_l	wrist_flex_l	wrist_dev_l
0	0	0	0	0	0.9399999999999999	0	0	0	0	0	0	0	0	0	0	0	0	0	0	0	0	0	0	0	0	0	0	0	0	89.99999999963507	0	0	0	0	0	0	89.99999999869995	0	0
0.02	-0.8109480413132064	-0.2098640975236885	21.08912124589239	0	0.9399999999999999	0	1.830654565990776	-0.8616041070269874	-0.616286360507035	2.865562610766975	0.05001350247992842	0	0	0	1.830654565990776	-0.8616041070269874	-0.616286360507035	2.865562610766975	0.05001350247992842	0	0	0	-0.263151449802954	0.07643295738930639	8.447101700812258	4.272298408573086	-1.574804633133637	3.666973976514957	2.7278021185107	99.07753354795683	0	0	6.10386996191579	-2.572511818482723	-15.61258548919399	8.793577074767475	126.9672905680056	0	0
0.04	-0.8136552866917302	-0.2232513036756061	21.13789165392978	0	0.9399999999999999	0	2.164574713273229	-1.006998432576593	-0.7414238391098904	3.069397228193442	0.05357108768356329	0	0	0	2.164574713273229	-1.006998432576593	-0.7414238391098904	3.069397228193442	0.05357108768356329	0	0	0	-0.2736194956546649	0.06426678191442553	8.411208359754729	4.289700879766507	-1.536540658188863	3.711116751019066	2.713512006029704	99.04034611932629	0	0	6.169277147835077	-2.568957471586287	-15.6625084293615	8.699582364829665	126.9826836044685	0	0
0.06	-0.7837848051958736	-0.2558447483328952	21.18507291009809	0	0.9399999999999999	0	2.173567829349985	-1.011689298117679	-0.744473408949706	3.082896763906199	0.05380669902924146	0	0	0	2.173567829349985	-1.011689298117679	-0.744473408949706	3.082896763906199	0.05380669902924146	0	0	0	-0.2575351097583055	0.02300688088582553	8.423412840498402	4.27363867157733	-1.479808164524338	3.772324528169152	2.710199951306407	98.98468697110623	0	0	6.136740341470941	-2.652255999693496	-15.62157344543817	8.684338212792696	126.9953183582675	0	0
0.08	-0.7712477363658501	-0.2665208083115948	21.23629237405149	0	0.9399999999999999	0	2.524541436022092	-1.161058574320598	-0.8751645027966107	3.290107094094547	0.05742320153517273	0	0	0	2.524541436022092	-1.161058574320598	-0.8751645027966107	3.290107094094547	0.05742320153517273	0	0	0	-0.2530739099879132	0.007981441169137784	8.387606278265652	4.295848468681752	-1.459977471934209	3.839648027088441	2.648400567408779	98.91607439640801	0	0	6.118774889674114	-2.675794401588437	-15.61064777801626	8.710162609854077	126.9195452276845	0	0
0.1	-0.7722123385667975	-0.2843051232538111	21.46429476607598	0	0.9399999999999999	0	4.974680171736785	-2.23024821283354	-1.743701330852453	5.403208841277409	0.09430378445315848	0	0	0	4.974680171736785	-2.23024821283354	-1.743701330852453	5.403208841277409	0.09430378445315848	0	0	0	-0.2952064039524723	-0.002994523117727895	8.186004153201482	4.371791480877526	-1.468112132389248	3.864063662086182	2.672155665590413	98.94372449375335	0	0	6.169855476270654	-2.67972000589572	-15.59088135878608	8.680236390891627	126.9536964567422	0	0
0.12	-0.7715749999493251	-0.2996263325073193	21.50911399261856	0	0.9399999999999999	0	5.32543387553739	-2.37237222246105	-1.86544389924243	5.689195880764458	0.09929519991023852	0	0	0	5.32543387553739	-2.37237222246105	-1.86544389924243	5.689195880764458	0.09929519991023852	0	0	0	-0.303328558029296	-0.01814181379232651	8.161416875840176	4.394757700949329	-1.460525771464098	3.851677690387054	2.670503383793065	98.94558043937084	0	0	6.168940692172418	-2.647502222698642	-15.58890859397885	8.693160098328644	126.9832202308489	0	0
0.14	-0.7577575225246257	-0.2990152464162911	21.57985907225095	0	0.9399999999999999	0	5.681775046541722	-2.516894757018731	-1.98805875780919	5.995756380733385	0.1046456899912563	0	0	0	5.681775046541722	-2.516894757018731	-1.98805875780919	5.995756380733385	0.1046456899912563	0	0	0	-0.2936788773480697	-0.02196750988840019	8.111617741370782	4.362689369307123	-1.445149675569827	3.832227956640043	2.674093397646722	98.95097875255246	0	0	6.156962738834888	-2.647893490748179	-15.57180053972132	8.686390724551149	126.9985424547131	0	0
0.16	-0.7463968219151926	-0.2978559327977178	21.64240915911936	0	0.9399999999999999	0	6.018179346203159	-2.645220821020703	-2.102909938339184	6.254288231790211	0.1091579220134735	0	0	0	6.018179346203159	-2.645220821020703	-2.102909938339184	6.254288231790211	0.1091579220134735	0	0	0	-0.2857945297804259	-0.02593255179744123	8.075423909393715	4.390733671435845	-1.455919325579623	3.788108839583665	2.603126681904741	98.96496981287353	0	0	6.135014357082137	-2.645372638118633	-15.5768970407157	8.608576115730646	126.9402870837559	0	0
0.18	-0.73018219379341	-0.2908949650481045	21.69365084953147	0	0.9399999999999999	0	6.401891294621155	-2.795964406573333	-2.232957057058664	6.58448680344192	0.1149209742741782	0	0	0	6.401891294621155	-2.795964406573333	-2.232957057058664	6.58448680344192	0.1149209742741782	0	0	0	-0.2715058106111127	-0.0263074083240087	8.028497615285861	4.372257745636676	-1.461270132319944	3.763793262309192	2.631087349685227	98.93270271230408	0	0	6.101360426018648	-2.631135837274843	-15.63058860371566	8.54368160696302	126.9383603068167	0	0
